<svg width="125" height="34" viewBox="0 0 125 34" fill="none" xmlns="http://www.w3.org/2000/svg">
<path fill-rule="evenodd" clip-rule="evenodd" d="M76.6451 6.99609H60.2066V12.3569H65.7008V23.8262H71.0602V12.3569H76.6451V6.99609ZM92.7077 23.7823L87.5271 6.99609H81.0036L75.8237 23.7823H81.1838L84.2654 11.8469L87.3483 23.7823H92.7077ZM109.119 6.99609H92.6808V12.3569H98.175V23.8262H103.534V12.3569H109.119V6.99609ZM125.001 23.7823L119.819 6.99609H113.298L108.116 23.7823H113.478L116.559 11.8469L119.64 23.7823H125.001V23.7823ZM20.2391 24.996C21.4068 20.036 22.2729 15.1945 22.2729 15.1945C22.2729 15.1945 22.7085 13.5976 21.8374 12.5087C20.9663 11.4198 18.2805 11.783 18.2805 11.783C18.2805 11.783 14.1086 11.8327 9.85658 12.3448C6.06989 12.8017 2.20587 13.5529 0.781422 13.8417C0.483624 14.8593 0.331018 15.9139 0.328125 16.9743C0.328125 24.4477 7.79653 30.7881 18.1649 33.0532C18.709 31.0754 19.5269 28.0173 20.2391 24.996V24.996Z" fill="#2D509F"/>
<path fill-rule="evenodd" clip-rule="evenodd" d="M27.9466 21.8732C27.897 15.8626 28.0651 10.257 28.0651 10.257C28.0651 10.257 27.8721 9.41282 28.4106 8.99996C28.9618 8.57788 30.2429 8.58781 30.2429 8.58781C30.2429 8.58781 35.2129 8.72756 40.7822 9.44191C44.8484 9.96472 49.2452 10.8032 51.2308 11.1998C47.5803 4.66775 37.9128 0 26.5591 0C15.1607 0 5.46552 4.70535 1.84766 11.2757C3.58849 10.9252 8.32079 10.0023 12.6785 9.44262C18.2479 8.72827 23.2165 8.58852 23.2165 8.58852C23.2165 8.58852 24.499 8.57859 25.0495 9.00067C25.5879 9.41353 25.395 10.2577 25.395 10.2577C25.395 10.2577 25.5638 15.8633 25.5134 21.8739C25.4737 26.4806 25.3318 31.3122 25.2453 33.9235C25.6801 33.9377 26.1171 33.9455 26.5584 33.9455C27.1145 33.9455 27.6657 33.9306 28.2134 33.9079C28.1275 31.2917 27.9864 26.4707 27.9466 21.8732V21.8732Z" fill="#2D509F"/>
<path fill-rule="evenodd" clip-rule="evenodd" d="M43.6038 12.3424C39.3518 11.8303 35.1792 11.7806 35.1792 11.7806C35.1792 11.7806 32.4941 11.4181 31.6216 12.5063C30.7512 13.5952 31.1875 15.192 31.1875 15.192C31.1875 15.192 32.0529 20.0336 33.2206 24.9936C33.9236 27.9794 34.7308 31 35.2749 32.9799C45.4759 30.6552 52.7889 24.3658 52.7889 16.9719C52.7889 15.8752 52.6222 14.8054 52.3158 13.7669C50.6714 13.4384 47.1039 12.7645 43.6038 12.3424V12.3424Z" fill="#2D509F"/>
</svg>
