<svg width="82" height="39" viewBox="0 0 82 39" fill="none" xmlns="http://www.w3.org/2000/svg">
<path fill-rule="evenodd" clip-rule="evenodd" d="M27.6774 0.220703H10.4817C10.4817 0.220703 11.2408 0.88445 11.3349 1.40031C11.4771 2.18394 11.1209 2.9632 11.1209 2.9632L2.14001 31.7047C2.14001 31.7047 1.73834 32.7456 1.23474 33.2103C0.827825 33.5862 0 33.9126 0 33.9126H12.6125C12.6125 33.9126 11.7812 33.4851 11.548 32.9863C11.3415 32.5444 11.4609 31.741 11.4609 31.741L14.5788 21.024C14.5788 21.024 29.4359 23.2108 33.9399 12.0898C37.7225 2.75362 30.3009 0.220703 27.6774 0.220703V0.220703ZM26.0988 11.5206C23.0636 20.4254 15.2588 18.8634 15.2588 18.8634L20.1802 2.8245H23.0448C23.0452 2.8245 29.2325 2.32614 26.0988 11.5206V11.5206Z" fill="#304497"/>
<path fill-rule="evenodd" clip-rule="evenodd" d="M68.8117 13.451C64.3287 14.1756 57.6159 16.6556 57.6159 16.6556L56.8323 20.0811C56.8323 20.0811 59.1732 18.982 60.754 18.5234C62.1427 18.1213 64.3895 17.7954 64.3895 17.7954L60.6078 31.4195C60.6078 31.4195 49.9888 33.7695 55.836 15.6588C57.1298 11.6501 61.5599 5.15308 66.0276 3.67945C71.0458 2.02424 76.2271 5.81639 76.2271 5.81639L77.7226 1.32942C77.7226 1.32942 72.1169 -0.141585 68.4787 0.0111161C61.2852 0.313018 56.561 2.21631 51.5547 7.39022C45.2095 13.9498 45.784 23.6851 45.784 23.6851L43.3613 25.577L40.9859 27.4322C40.9859 27.4322 39.4655 25.1053 38.9317 23.4361C38.5007 22.0902 38.2942 19.8684 38.2942 19.8684C38.2942 19.8684 42.3528 17.8417 44.4268 16.1576C48.5567 12.803 47.0656 8.88573 44.3147 8.48757C41.136 8.02728 39.5784 8.23774 37.238 10.0973C33.6537 12.9457 33.515 18.9351 33.515 18.9351C33.515 18.9351 21.7491 21.7905 23.2306 30.3037C23.6686 32.8222 27.476 34.3269 30.5878 34.2696C35.4379 34.0552 38.7453 31.8811 38.7453 31.8811C38.7453 31.8811 41.735 36.0127 49.2047 37.8373C58.8271 40.1873 68.4608 35.3367 68.4608 35.3367L69.0257 33.8412C69.0257 33.8412 61.8968 37.6238 53.8032 36.0819C46.2863 34.6507 42.3537 29.7034 42.3537 29.7034C42.3537 29.7034 43.6799 28.684 44.5003 27.9979C45.2336 27.3845 46.3445 26.3829 46.3445 26.3829C46.3445 26.3829 47.7897 30.8874 51.7026 32.7211C60.3226 36.7614 69.6667 32.0613 69.6667 32.0613L74.2328 16.9408C74.2328 16.9408 76.1418 16.7588 77.3656 16.7654C78.7053 16.7719 80.7924 17.0122 80.7924 17.0122L81.8604 13.0161C81.86 13.0161 73.8097 12.6429 68.8117 13.451ZM32.7313 31.1346C30.8797 31.251 28.8468 30.4927 28.3796 28.7776C27.0971 24.0697 33.7994 21.7196 33.7994 21.7196C33.7994 21.7196 34.2916 24.372 34.9269 25.9616C35.5552 27.5341 37.0043 29.7739 37.0043 29.7739C37.0043 29.7739 34.9527 30.9964 32.7313 31.1346V31.1346ZM42.6377 10.5948C43.9017 10.7803 43.5709 13.5937 41.8352 14.8516C40.4815 16.2911 38.1511 16.9404 38.1511 16.9404C38.1511 16.9404 37.865 9.8947 42.6377 10.5948Z" fill="#304497"/>
</svg>
