<svg width="128" height="32" viewBox="0 0 128 32" fill="none" xmlns="http://www.w3.org/2000/svg">
<path d="M20.5524 31.2656H0V1H20.5524V31.2656Z" fill="#062769"/>
<path d="M128 31.2658H22.5938V1.00195H128V31.2658Z" fill="#062769"/>
<path d="M29.1797 10.3926H35.9476V12.1993H31.4794V15.0251H35.5695V16.8318H31.4794V20.051H35.9799V21.8586H29.1797V10.3926Z" fill="white"/>
<path d="M37.1133 13.3987H39.1669V14.5813H39.1992C39.8898 13.546 40.8919 13.2012 41.7126 13.2012C42.8952 13.2012 43.733 13.6448 44.2098 14.6963C44.719 13.678 45.819 13.2012 46.8543 13.2012C48.9403 13.2012 49.532 14.6307 49.532 16.5191V21.8584H47.3311V16.8154C47.3311 16.027 47.3311 14.91 46.0659 14.91C44.604 14.91 44.4235 16.6511 44.4235 17.7511V21.8584H42.2218V16.8154C42.2218 16.027 42.2218 14.91 40.9574 14.91C39.4956 14.91 39.3142 16.6511 39.3142 17.7511V21.8584H37.1133V13.3987Z" fill="white"/>
<path d="M50.8125 13.3986H53.0143V21.8582H50.8125V13.3986ZM50.8125 9.75195H53.0143V11.8541H50.8125V9.75195Z" fill="white"/>
<path d="M54.2305 13.3987H56.1853V15.3203H56.2185C56.3173 14.5319 57.2207 13.2012 58.5344 13.2012C58.7481 13.2012 58.978 13.2012 59.2078 13.2667V15.4847C59.0112 15.3697 58.617 15.3042 58.2228 15.3042C56.4323 15.3042 56.4323 17.5383 56.4323 18.7532V21.8584H54.2305V13.3987Z" fill="white"/>
<path d="M62.6165 20.445C63.29 20.445 63.8153 20.1496 64.1601 19.6898C64.522 19.2139 64.6199 18.606 64.6199 17.9487H63.668C62.6821 17.9487 61.2202 18.113 61.2202 19.4105C61.2202 20.1334 61.8281 20.445 62.6165 20.445ZM60.0376 13.8423C60.8915 13.4481 62.0418 13.2012 62.9775 13.2012C65.5564 13.2012 66.6241 14.2688 66.6241 16.7661V17.8499C66.6241 18.7038 66.6403 19.345 66.6573 19.9691C66.6735 20.6093 66.7067 21.2011 66.7552 21.8584H64.8174C64.7348 21.4148 64.7348 20.8562 64.7186 20.5931H64.6863C64.1772 21.5297 63.0763 22.0559 62.0742 22.0559C60.5791 22.0559 59.1172 21.1517 59.1172 19.5416C59.1172 18.2773 59.7251 17.5383 60.5629 17.127C61.4007 16.7167 62.4845 16.635 63.4049 16.635H64.6199C64.6199 15.271 64.0128 14.8112 62.7153 14.8112C61.7787 14.8112 60.8422 15.1722 60.1031 15.7307L60.0376 13.8423Z" fill="white"/>
<path d="M68.3645 15.0076H66.7383V13.3984H68.3645V11.7067L70.5663 11V13.3984H72.5211V15.0076H70.5663V18.9505C70.5663 19.6734 70.7638 20.3468 71.6007 20.3468C71.9949 20.3468 72.373 20.2642 72.6028 20.1169L72.6684 21.8581C72.2086 21.9892 71.6995 22.0556 71.0422 22.0556C69.3181 22.0556 68.3645 20.9871 68.3645 19.3115V15.0076Z" fill="white"/>
<path d="M78.5203 16.7984C78.4538 15.7307 77.9617 14.8112 76.7297 14.8112C75.4977 14.8112 74.8728 15.6652 74.7749 16.7984H78.5203ZM79.9983 21.3815C79.1928 21.8251 78.2733 22.0559 77.0907 22.0559C74.2981 22.0559 72.6719 20.445 72.6719 17.6694C72.6719 15.2216 73.9703 13.2012 76.5977 13.2012C79.7361 13.2012 80.6224 15.3536 80.6224 18.3096H74.7749C74.8728 19.6736 75.8264 20.445 77.1895 20.445C78.2572 20.445 79.1776 20.0508 79.9983 19.591V21.3815Z" fill="white"/>
<path d="M86.5496 15.1722C85.8752 14.9423 85.3831 14.8112 84.5786 14.8112C83.9868 14.8112 83.2801 15.0249 83.2801 15.7478C83.2801 17.0947 87.1081 16.2399 87.1081 19.2956C87.1081 21.2666 85.3499 22.0559 83.5594 22.0559C82.7216 22.0559 81.8676 21.9078 81.0631 21.694L81.1942 19.8874C81.8847 20.2322 82.6067 20.445 83.3627 20.445C83.9204 20.445 84.8085 20.2322 84.8085 19.4105C84.8085 17.7511 80.9805 18.8852 80.9805 15.8295C80.9805 14.0066 82.5743 13.2012 84.2993 13.2012C85.3338 13.2012 86.0072 13.3655 86.6969 13.5137L86.5496 15.1722Z" fill="white"/>
<path d="M91.5859 10.3926H94.4118L98.7813 18.9672H98.8145V10.3926H101.015V21.8586H98.2057L93.8209 13.284H93.7877V21.8586H91.5859V10.3926Z" fill="white"/>
<path d="M105.112 20.051H106.196C107.264 20.051 108.562 19.7888 108.562 18.458C108.562 16.9629 107.346 16.733 106.196 16.733H105.112V20.051ZM105.112 15.0251H106.048C107.018 15.0251 108.216 14.8114 108.216 13.6288C108.216 12.298 107.051 12.1993 105.998 12.1993H105.112V15.0251ZM102.812 10.3926H106.821C108.298 10.3926 110.517 10.82 110.517 13.3334C110.517 14.6965 109.597 15.6492 108.233 15.8953V15.9285C109.793 16.0766 110.862 17.1272 110.862 18.5406C110.862 21.4311 108.266 21.8586 106.821 21.8586H102.812V10.3926Z" fill="white"/>
<path d="M114.417 20.051H115.699C117.621 20.051 119.477 18.6223 119.477 16.1251C119.477 13.6288 117.621 12.1993 115.699 12.1993H114.417V20.051ZM112.117 10.3926H115.256C118.771 10.3926 121.875 11.5752 121.875 16.1251C121.875 20.676 118.771 21.8586 115.256 21.8586H112.117V10.3926Z" fill="white"/>
<path d="M8.46328 19.418C8.73626 11.9003 12.7537 5.3057 18.8643 1H14.8208C9.86948 5.27517 6.6997 11.2358 6.45635 17.9265C6.28035 22.7754 7.66679 27.3523 10.2035 31.2647H11.3592C9.36842 27.7007 8.30883 23.6635 8.46328 19.418Z" fill="white"/>
<path d="M8.46328 19.4189C8.73626 11.9012 12.7537 5.30662 18.8643 1.00092H14.8208C9.86948 5.27609 6.6997 11.2367 6.45635 17.9274C6.28035 22.7764 7.66679 27.3532 10.2035 31.2656H11.3592C9.36842 27.7016 8.30883 23.6644 8.46328 19.4189Z" stroke="white" stroke-width="0.1"/>
<path d="M13.4172 1H10.2465C6.77321 4.26048 4.34963 8.99719 3.79738 14.4433C3.12392 21.081 5.38677 27.2383 9.40422 31.2665H10.4764C7.00039 27.2948 5.09942 21.5767 5.7217 15.4445C6.3368 9.37972 9.28748 4.20391 13.4172 1Z" fill="#FCAF17"/>
<path d="M13.4172 1.00108H10.2465C6.77321 4.26156 4.34963 8.99828 3.79738 14.4444C3.12392 21.0821 5.38676 27.2393 9.40422 31.2676H10.4764C7.00039 27.2959 5.09942 21.5777 5.7217 15.4456C6.3368 9.3808 9.28748 4.20499 13.4172 1.00108Z" stroke="#FCAF17" stroke-width="0.05"/>
<path d="M16.8311 14.0489C16.8311 11.4377 16.0409 9.01048 14.6877 6.98828C15.2166 8.68542 15.4429 10.4957 15.5057 12.3751C15.6781 17.5581 13.2932 21.9258 9.9375 25.3623C14.0977 23.5062 16.8311 18.9652 16.8311 14.0489Z" fill="white"/>
<path d="M14.3402 17.1107C14.2522 15.2618 13.6218 13.5691 12.6143 12.1836C13.039 13.3671 13.2572 14.6422 13.3641 15.9712C13.6586 19.6366 12.1501 22.8127 9.9375 25.3629C12.7625 23.9046 14.5063 20.5938 14.3402 17.1107Z" fill="#FCAF17"/>
<path d="M14.3402 17.1111C14.2522 15.2622 13.6218 13.5695 12.6143 12.184C13.039 13.3675 13.2572 14.6426 13.3641 15.9716C13.6586 19.637 12.1501 22.8131 9.9375 25.3633C12.7625 23.905 14.5063 20.5942 14.3402 17.1111Z" stroke="#FCAF17" stroke-width="0.05"/>
</svg>
