<svg width="127" height="25" viewBox="0 0 127 25" fill="none" xmlns="http://www.w3.org/2000/svg">
<path fill-rule="evenodd" clip-rule="evenodd" d="M24.8067 24.7319V0.00390625H0V24.7319H24.8067Z" fill="#FBFBFB"/>
<path fill-rule="evenodd" clip-rule="evenodd" d="M6.88823 10.8496H8.95591C9.36591 10.8496 9.73859 11.1137 9.73859 11.5481C9.73859 12.1339 9.27156 12.5453 8.62329 12.5453H6.41034L6.88823 10.8496V10.8496ZM17.0603 10.8611H19.0133C19.9399 10.8611 19.9758 11.4911 19.9758 11.6696C19.9758 12.0878 19.6079 12.9112 18.4831 12.9112H16.4928C16.4935 12.9112 17.0501 10.9107 17.0603 10.8611V10.8611ZM5.91005 14.3041H7.69806C8.57373 14.3041 8.62329 14.5417 8.74412 14.744C8.86359 14.947 8.80793 15.3753 8.72579 15.5219C8.62125 15.7059 8.44408 16.2802 7.32539 16.2802H5.33984L5.91005 14.3041Z" fill="#278B5F"/>
<path fill-rule="evenodd" clip-rule="evenodd" d="M24.8067 9.01826V24.7329H0V9.01826H4.77345L2.12877 18.166H7.54303C9.88834 18.166 10.297 17.6182 10.7728 17.2191C11.4089 16.6862 11.7497 15.4175 11.4639 14.5343C11.2616 13.9098 10.6717 13.5317 10.6065 13.5134C11.3397 13.174 11.766 12.428 11.8182 12.3187C12.0904 11.7532 12.3009 10.7289 11.6248 9.90479C11.0627 9.21987 9.97048 9.03183 9.1783 9.01758H14.9747L12.3205 18.1837H15.0066L15.9875 14.7088H17.5223C18.6376 14.7088 18.5358 15.4019 18.5636 15.7019L18.6512 18.2583L21.1452 18.257C21.1452 18.257 21.0325 15.3876 21.023 15.1785C20.9897 14.4427 20.501 14.1101 20.0855 14.1101C20.8845 13.8942 21.5783 13.1686 21.8552 12.7036C22.1749 12.168 22.4159 11.314 22.0989 10.4669C21.64 9.23683 20.4569 9.03319 19.6301 9.01826H24.8067V9.01826Z" fill="#278B5F"/>
<path fill-rule="evenodd" clip-rule="evenodd" d="M0 6.0128H24.8067V0.00390625H0V6.0128Z" fill="#ECB739"/>
<path fill-rule="evenodd" clip-rule="evenodd" d="M63.7634 10.3451L64.109 9.14357H55.697L55.0216 11.5466H57.722L55.7955 18.2961H58.7918L60.7176 11.5466H63.4179L63.7634 10.3451V10.3451ZM70.3324 9.14357H66.0185L63.7634 17.0953L63.4179 18.2968H66.4305L67.3191 15.1043H68.2246C68.784 15.1043 69.1302 15.1694 69.3277 15.3174C69.6406 15.5482 69.5918 15.9766 69.3766 16.7002C69.361 16.7667 69.3433 16.8156 69.3277 16.8644C69.1471 17.5894 69.0636 18.1162 69.0813 18.2961H72.1265L72.2086 18.0178C71.8468 18.0178 71.9941 17.6213 72.3396 16.4198C72.8657 14.5755 72.3396 14.3447 71.483 13.9829C72.6363 13.6869 73.3443 12.7977 73.6572 11.7441C74.1507 9.96698 73.3938 9.14357 70.3324 9.14357V9.14357ZM70.7437 12.222C70.5781 12.7983 70.1022 13.0461 69.3277 13.095H67.8784L68.4059 11.2676H69.8042C70.4973 11.2676 70.9236 11.5799 70.7437 12.222V12.222ZM43.7288 18.2961H51.3838L51.9927 16.1564H47.334L47.7454 14.7248H51.5325L52.1414 12.5845H48.3543L48.7337 11.2676H53.1949L53.8038 9.14357H46.33L43.7288 18.2961V18.2961ZM40.5682 9.14357H36.1559L33.5391 18.2961H36.5517L37.3581 15.4484H38.8725C39.0368 15.4484 39.2018 15.4484 39.366 15.4328C41.7039 15.2842 43.0703 14.0833 43.5971 12.2227C44.1239 10.3451 43.202 9.14357 40.5682 9.14357V9.14357ZM40.7325 12.239C40.5187 12.9803 39.9919 13.2755 39.366 13.3088H37.967L38.5433 11.2676H39.3993C40.0415 11.2676 40.9633 11.3823 40.7325 12.239V12.239ZM111.964 9.14357L111.767 9.44022L106.251 18.0184L106.071 18.2968H109.018L109.709 17.0953H112.706V18.2968H115.702L115.027 9.14425H111.964V9.14357V9.14357ZM111.767 15.1857H110.829L111.767 13.5057L112.689 11.8928L112.722 15.1857H111.767ZM126.962 11.7944C127.192 10.1978 126.403 8.89648 123.866 8.89648C121.561 8.89648 119.602 9.86787 119.06 11.8269C118.055 15.3174 123.603 14.3623 123.208 15.7614C123.093 16.1897 122.516 16.4361 121.775 16.4361C121.479 16.4361 121.184 16.354 120.986 16.2067C120.772 16.041 120.657 15.8102 120.689 15.4817H117.808C117.413 17.1285 118.583 18.5445 121.002 18.5445C123.521 18.5445 125.595 17.5066 126.188 15.3839C127.142 12.0584 121.628 12.8981 122.023 11.5317C122.105 11.2024 122.451 11.0042 123.126 11.0042C123.406 11.0042 123.668 11.0538 123.85 11.1692C124.03 11.2846 124.147 11.4821 124.096 11.795H126.962V11.7944V11.7944ZM92.5399 9.14357H88.1432L85.542 18.2961H90.0208C90.2183 18.2961 90.4145 18.2961 90.6134 18.2805C92.6872 18.1651 94.2186 17.4238 94.7447 15.5482C95.0244 14.5443 94.7447 13.6883 93.8235 13.4405C94.5146 13.0787 95.3217 12.3876 95.5844 11.4488C96.0949 9.62146 94.5974 9.14357 92.5399 9.14357ZM92.0125 15.3174C91.8319 15.9766 91.2888 16.1408 90.6134 16.1564H89.1641L89.6413 14.4777H90.6127C91.5509 14.4777 92.2433 14.5273 92.0125 15.3174ZM92.622 12.0082C92.4734 12.5349 91.9629 12.7983 91.3547 12.7983H90.1186L90.5469 11.2676H91.6011C92.2433 11.2676 92.8182 11.2839 92.622 12.0082ZM81.2457 8.89648C80.7855 8.89648 80.3246 8.94604 79.8799 9.04515C77.6249 9.53933 75.7806 11.235 75.0895 13.6374C74.2172 16.766 75.6319 18.5445 78.4972 18.5445C78.9744 18.5445 79.436 18.4943 79.8799 18.3959C82.0528 17.9024 83.9623 16.2562 84.7029 13.6706C85.3953 11.2506 84.523 8.89648 81.2457 8.89648ZM81.691 13.6706C81.3611 14.8728 80.7699 15.8279 79.8799 16.1741C79.6491 16.2562 79.4027 16.3051 79.1387 16.3051C77.707 16.3051 77.7559 14.8402 78.1021 13.6706C78.3662 12.7332 78.9411 11.6464 79.8799 11.2676C80.1055 11.1794 80.3457 11.1347 80.5879 11.1359C81.9218 11.1033 82.0528 12.4202 81.691 13.6706V13.6706ZM106.251 11.926C106.285 11.8602 106.302 11.8113 106.318 11.7448C106.515 11.0531 106.515 10.4937 106.251 10.0817C105.858 9.43954 104.852 9.14357 102.992 9.14357H98.6622L96.0623 18.2961H99.0586L99.9797 15.1036H100.885C101.445 15.1036 101.791 15.1688 101.988 15.3167C102.301 15.5475 102.251 15.9759 102.037 16.6995C102.02 16.766 102.004 16.8149 101.988 16.8638C101.791 17.5887 101.724 18.1155 101.741 18.2954H104.787L104.852 18.0171C104.506 18.0171 104.655 17.6207 105.001 16.4191C105.527 14.5748 105.001 14.344 104.144 13.9822C105.232 13.7039 105.94 12.8974 106.251 11.926V11.926ZM103.405 12.222C103.239 12.7983 102.762 13.0461 101.989 13.095H100.54L101.066 11.2676H102.466C103.157 11.2676 103.586 11.5799 103.405 12.222Z" fill="#278B5F"/>
</svg>
