<?xml version="1.0" encoding="utf-8"?>
<!-- Generator: Adobe Illustrator 26.3.1, SVG Export Plug-In . SVG Version: 6.00 Build 0)  -->
<svg version="1.1" id="Layer_1" xmlns:svg="http://www.w3.org/2000/svg"
	 xmlns="http://www.w3.org/2000/svg" xmlns:xlink="http://www.w3.org/1999/xlink" x="0px" y="0px" viewBox="0 0 856 195"
	 style="enable-background:new 0 0 856 195;" xml:space="preserve">
<polyline id="polyline3" points="463.2,160 566.5,160 566.5,147.4 480.9,147.4 480.9,107 545.2,107 545.2,94.3 480.9,94.3 
	480.9,57.1 566.5,57.1 566.5,44.6 463.2,44.6 463.2,160 "/>
<polyline id="polyline5" points="516.9,25.9 502.9,41.6 546.8,25.9 516.9,25.9 "/>
<polyline id="polyline7" points="739.8,147.4 739.8,44.6 723.6,44.6 723.6,160 828,160 828,147.4 739.8,147.4 "/>
<path id="path9" d="M633.4,44.6L574.7,160h19.8l15-29.9h70.4l15.1,29.9h19.6L656,44.6H633.4 M616.9,115.7l27.7-55.1l28,55.1H616.9z"
	/>
<path id="path11" d="M407.2,111.7c26.5-7.1,29-26.7,28.9-33.8c-1.6-20.6-15.5-33.4-40.4-33.4h-72.8V160h16.6v-48.4h47.4l34.9,48.4
	h20.9C442.6,160,417.5,127.4,407.2,111.7 M393.4,97.9h-53.9V58.2h55.8c12.8,0,20.1,6,22.7,13.6c1.7,5.2,0.6,12.1-2.2,16.7
	C411,96.3,402.2,97.9,393.4,97.9z"/>
<path id="path13" d="M223.2,25c-46.8,0-78.7,33-78.7,73c0,42.1,35.3,71.8,78.7,71.8c43.5,0,78.7-29.3,78.7-71.8
	C301.9,58,269.6,25,223.2,25 M222.6,155.4c-32.4,0-59.1-26-59.1-57.4c0-31.3,25.4-58.6,60.3-58.6c34,0,59.1,27.3,59.1,58.6
	C283,129.4,255,155.4,222.6,155.4z"/>
<polyline id="polyline15" points="102.7,85.4 114.6,85.4 136.4,44.6 118.9,44.6 102.7,85.4 "/>
<polyline id="polyline17" points="44.1,147.4 44.1,44.6 28,44.6 28,160 132.4,160 132.4,147.4 44.1,147.4 "/>
</svg>
