<?xml version="1.0" encoding="UTF-8"?>
<svg id="Layer_1" data-name="Layer 1" xmlns="http://www.w3.org/2000/svg" viewBox="0 0 528.86 383.34">
  <defs>
    <style>
      .cls-1, .cls-2 {
        fill: #231f20;
      }

      .cls-2, .cls-3 {
        fill-rule: evenodd;
      }

      .cls-3 {
        fill: #d2ab67;
      }
    </style>
  </defs>
  <g>
    <path class="cls-3" d="m296.78,162.95c-6.19,4.58-14.33,5.27-20.63,2.29,0,0-1.72-.69-3.32-2.52-1.38-1.72-36.22-41.04-36.22-41.04l-.11-.11c10.78,1.95,22.58-3.21,28.66-12.61,6.07-8.94,5.85-21.66.12-30.6-6.88-9.74-20.29-12.95-31.52-11.46-19.49,2.75-33.47,20.06-37.82,38.17-4.47,20.63-1.26,40.12,5.73,58.46,1.6,3.9,3.78,7.91,6.42,11.35-20.52-8.94-38.63-25.44-48.14-47.57-10.55-23.84-10.32-53.99,2.18-78.17,9.86-18.68,27.28-35.99,48.83-43.33,22.58-9.28,52.95-7.34,74.96,5.04,26.71,13.3,46.88,46.42,46.99,75.99.92,30.6-12.61,58.34-36.1,76.11h-.03Z"/>
    <path class="cls-3" d="m221.81,174.53c-9.97-10.78-18-24.76-11.92-39.32,5.39-11.12,10.2-22.47,12.49-35.31.91,13.41,9.06,25.33,12.95,38.17,1.49,6.19,1.61,12.61-.8,19.03-2.64,6.99-6.88,12.95-11.92,18.34l-.8-.91Z"/>
  </g>
  <g>
    <path class="cls-2" d="m96.05,295.65h-26.55c-5.88-9.23-11.19-17.2-15.96-23.91-4.74-6.71-9.89-13.64-15.44-20.78h-10.08v31.29c0,1.61.26,3.04.76,4.27.5,1.21,1.59,2.16,3.27,2.8.83.33,2.28.64,4.37.9,2.09.28,3.84.45,5.29.5v4.93H0v-4.93c1.12-.1,2.73-.26,4.84-.5,2.11-.21,3.58-.52,4.41-.9,1.38-.59,2.39-1.47,3.01-2.63.64-1.17.95-2.63.95-4.44v-71.31c0-1.64-.24-3.06-.71-4.32-.45-1.26-1.54-2.21-3.25-2.85-1.16-.43-2.68-.8-4.53-1.14-1.85-.35-3.42-.57-4.72-.66v-4.93h45.52c4.18,0,8.09.43,11.74,1.28s6.97,2.23,9.94,4.12c2.87,1.85,5.17,4.27,6.88,7.26,1.71,2.99,2.58,6.6,2.58,10.82,0,3.8-.59,7.16-1.75,10.08s-2.87,5.43-5.12,7.57c-2.09,1.99-4.6,3.73-7.52,5.17-2.92,1.47-6.14,2.71-9.65,3.72,4.86,6.45,8.89,11.86,12.12,16.28,3.23,4.39,7.16,9.75,11.86,16.03,2.04,2.8,3.87,4.84,5.53,6.17,1.63,1.3,3.27,2.4,4.89,3.23,1.21.59,2.7,1.07,4.53,1.4,1.8.31,3.3.5,4.51.55v4.93h-.01Zm-36.56-73.54c0-5.98-1.71-10.7-5.14-14.21-3.42-3.49-8.28-5.24-14.52-5.24h-11.82v42.32h9.11c6.38,0,11.72-2.04,15.96-6.14,4.27-4.1,6.41-9.68,6.41-16.72h0Zm99.44,57.4c-2.87,5.48-6.71,9.82-11.52,13.07-4.82,3.25-10.37,4.86-16.61,4.86-5.53,0-10.34-.97-14.49-2.92-4.15-1.94-7.57-4.58-10.25-7.92-2.68-3.32-4.7-7.24-6.02-11.67-1.31-4.46-1.97-9.16-1.97-14.11,0-4.44.71-8.8,2.11-13.1,1.42-4.29,3.49-8.14,6.24-11.57,2.63-3.28,5.91-5.93,9.82-7.95s8.31-3.03,13.17-3.03,9.3.78,12.86,2.37c3.58,1.56,6.48,3.72,8.68,6.45,2.13,2.61,3.72,5.67,4.77,9.18,1.04,3.54,1.57,7.35,1.57,11.46v4.6h-45.38c0,4.48.43,8.56,1.28,12.22.85,3.68,2.21,6.88,4.08,9.68,1.8,2.68,4.15,4.79,7.07,6.36,2.92,1.54,6.41,2.33,10.44,2.33s7.68-.98,10.67-2.9c2.97-1.92,5.86-5.38,8.64-10.39l4.86,2.99h-.02Zm-15.35-26.13c0-2.61-.21-5.38-.66-8.35-.45-2.96-1.14-5.43-2.11-7.42-1.07-2.13-2.54-3.87-4.39-5.22s-4.25-2.01-7.16-2.01c-4.86,0-8.89,2.01-12.12,6.07-3.22,4.05-4.96,9.7-5.24,16.94h31.69,0Zm54.09,42.24h-32.27v-4.42c1.03-.09,2.13-.21,3.3-.32,1.17-.09,2.13-.28,2.89-.51,1.26-.39,2.2-1.1,2.82-2.11.62-1.01.96-2.32.94-3.92l-1.05-73.18c0-.83-.37-3.21-.81-4.86-.2-.75-.41-1.35-.61-1.58-.22-.24-.29-.49-.59-.76-1.16-1.04.28.4-.8-.56-.71-.64.29-.24-1.85-.68-2.13-.44-5.69.54-6.99.45l-.12-4.82,24.06-1.31,1.14.98.09,85.52c0,1.56.29,2.84.87,3.85.58,1,1.51,1.79,2.82,2.31.98.46,1.94.78,2.91,1.01s2.06.39,3.25.48v4.42h0Zm41.47,0h-32.86v-4.54c1.06-.09,2.14-.18,3.27-.28,1.13-.09,2.09-.28,2.92-.56,1.3-.4,2.26-1.13,2.87-2.16s.94-2.38.94-4.02v-41.96c0-1.48-.36-2.82-1.01-4.05-.66-1.22-1.6-2.23-2.8-3.06-.87-.56-2.12-1.04-3.78-1.41-1.65-.4-3.15-.64-4.54-.73v-4.47l23.99-1.53.96.97v55.42c0,1.6.3,2.94.92,4,.61,1.04,1.6,1.83,2.94,2.33,1.01.42,2,.75,2.96,1.01.97.24,2.02.43,3.22.52v4.54h0v-.02Zm-8.68-95.57c0,2.61-.85,4.89-2.59,6.85-1.72,1.95-3.83,2.94-6.37,2.94-2.33,0-4.38-.94-6.09-2.8-1.72-1.86-2.59-4-2.59-6.37,0-2.54.87-4.73,2.59-6.61s3.76-2.82,6.09-2.82c2.63,0,4.77.87,6.44,2.64,1.67,1.78,2.52,3.83,2.52,6.18h0Zm81.98,94.3c-2.18.78-4.08,1.42-5.72,1.92-1.66.47-3.51.74-5.6.74-3.63,0-6.5-.85-8.66-2.54-2.16-1.71-3.53-4.18-4.13-7.4h-.43c-3.01,3.32-6.24,5.88-9.7,7.64-3.44,1.75-7.59,2.63-12.45,2.63-5.15,0-9.37-1.57-12.69-4.72-3.32-3.16-4.98-7.28-4.98-12.36,0-2.66.38-5,1.11-7.09.76-2.09,1.85-3.96,3.35-5.65,1.16-1.38,2.68-2.61,4.58-3.7,1.9-1.09,3.7-1.97,5.36-2.61,2.09-.78,6.31-2.25,12.67-4.39,6.38-2.13,10.67-3.79,12.9-5v-6.88c0-.59-.12-1.75-.38-3.46s-.81-3.35-1.63-4.86c-.93-1.73-2.23-3.23-3.94-4.48-1.68-1.28-4.08-1.92-7.19-1.92-2.13,0-4.1.35-5.93,1.09-1.83.71-3.13,1.47-3.86,2.25,0,.93.21,2.28.67,4.1.45,1.8.66,3.46.66,5.01s-.74,3.08-2.18,4.43c-1.47,1.35-3.49,2.02-6.1,2.02-2.3,0-4.01-.83-5.1-2.47-1.09-1.64-1.63-3.49-1.63-5.53s.76-4.17,2.25-6.12c1.52-1.94,3.46-3.68,5.88-5.19,2.09-1.3,4.6-2.39,7.56-3.32,2.96-.9,5.86-1.35,8.69-1.35,3.89,0,7.28.28,10.2.8,2.89.52,5.5,1.68,7.87,3.44,2.37,1.71,4.15,4.03,5.39,6.97,1.23,2.94,1.85,6.74,1.85,11.36,0,6.64-.07,12.5-.22,17.62-.14,5.13-.21,10.72-.21,16.8,0,1.8.3,3.23.95,4.29.62,1.07,1.59,1.97,2.87,2.73.71.4,1.81.64,3.3.69,1.52.05,3.06.07,4.63.07v4.44h-.01Zm-24.24-36.7c-3.94,1.16-7.4,2.3-10.37,3.42-2.96,1.12-5.72,2.49-8.25,4.18-2.33,1.57-4.15,3.44-5.51,5.6-1.33,2.14-2.02,4.7-2.02,7.66,0,3.84,1.02,6.69,3.04,8.49,2.02,1.8,4.58,2.71,7.66,2.71,3.3,0,6.19-.81,8.71-2.39,2.5-1.59,4.6-3.49,6.31-5.67l.43-23.98h0v-.02Zm106.72,37.95h-33.57v-4.58c1.07-.09,2.25-.19,3.51-.28,1.28-.1,2.32-.29,3.18-.57,1.28-.4,2.25-1.14,2.87-2.18.64-1.05.95-2.4.95-4.06v-35.25c0-4.87-1.16-8.61-3.44-11.24-2.3-2.63-5.1-3.96-8.37-3.96-2.47,0-4.72.38-6.76,1.14-2.01.76-3.84,1.71-5.41,2.82-1.52,1.07-2.75,2.21-3.65,3.44s-1.56,2.21-1.97,2.94v39.42c0,1.57.31,2.87.97,3.89.64,1.02,1.61,1.8,2.92,2.35.97.48,2.01.81,3.15,1.04,1.14.24,2.31.4,3.51.5v4.58h-33.57v-4.58c1.06-.09,2.16-.19,3.3-.28,1.14-.1,2.12-.29,2.97-.57,1.28-.4,2.25-1.14,2.87-2.18.64-1.05.95-2.4.95-4.06v-42.32c0-1.59-.33-3.04-1.02-4.34-.66-1.33-1.61-2.42-2.8-3.25-.88-.55-1.92-.95-3.13-1.21-1.21-.26-2.51-.43-3.89-.52v-4.51l22.8-1.54.98.97v9.65h.33c1.12-1.09,2.52-2.44,4.17-3.98,1.66-1.54,3.25-2.82,4.72-3.8,1.73-1.12,3.77-2.04,6.12-2.78,2.37-.73,5.03-1.11,8-1.11,6.57,0,11.46,2.06,14.63,6.14,3.18,4.1,4.74,9.56,4.74,16.37v35.66c0,1.63.29,2.94.86,3.94.54.99,1.49,1.78,2.84,2.32,1.11.47,2.06.79,2.87.97.81.19,1.95.33,3.37.43v4.58h0Zm40.11,1.8c-9.92,0-17.67-3.3-23.29-9.87-5.6-6.57-8.4-15.4-8.4-26.47,0-4.81.76-9.32,2.25-13.52,1.52-4.2,3.7-8,6.57-11.43,2.73-3.28,6.17-5.93,10.29-7.95,4.1-2.02,8.61-3.03,13.47-3.03,6.72,0,12.2,1.61,16.39,4.84,4.22,3.23,6.33,7.62,6.33,13.17,0,2.32-.55,4.36-1.66,6.14-1.11,1.8-2.94,2.68-5.5,2.68-2.73,0-4.84-.69-6.36-2.09-1.5-1.37-2.25-2.94-2.25-4.65,0-2.09.28-4.22.83-6.43.57-2.2.87-3.82.97-4.84-.83-1.42-2.06-2.39-3.72-2.87-1.64-.5-3.42-.74-5.32-.74-2.2,0-4.34.47-6.35,1.42-2.02.95-3.96,2.7-5.86,5.24-1.73,2.33-3.1,5.46-4.18,9.39-1.06,3.94-1.61,8.63-1.61,14.09,0,8.63,1.92,15.65,5.74,21.11,3.82,5.44,8.85,8.16,15.04,8.16,4.51,0,8.28-1.09,11.32-3.28,3.01-2.18,5.83-5.43,8.42-9.8l4.46,2.92c-3.06,5.48-7.09,9.8-12.1,13s-10.18,4.79-15.49,4.79h0v.02Zm93.83-17.93c-2.87,5.48-6.71,9.82-11.53,13.07s-10.37,4.86-16.61,4.86c-5.53,0-10.34-.97-14.49-2.92-4.15-1.94-7.57-4.58-10.25-7.92-2.68-3.32-4.69-7.24-6.02-11.67-1.3-4.46-1.97-9.16-1.97-14.11,0-4.44.71-8.8,2.11-13.1,1.42-4.29,3.49-8.14,6.24-11.57,2.63-3.28,5.91-5.93,9.82-7.95s8.3-3.03,13.17-3.03,9.3.78,12.86,2.37c3.58,1.56,6.48,3.72,8.68,6.45,2.14,2.61,3.72,5.67,4.77,9.18,1.04,3.54,1.57,7.35,1.57,11.46v4.6h-45.38c0,4.48.43,8.56,1.28,12.22.85,3.68,2.21,6.88,4.08,9.68,1.8,2.68,4.15,4.79,7.07,6.36,2.92,1.54,6.41,2.33,10.44,2.33s7.69-.98,10.68-2.9c2.96-1.92,5.86-5.38,8.63-10.39l4.86,2.99h-.01Zm-15.35-26.13c0-2.61-.21-5.38-.66-8.35-.45-2.96-1.14-5.43-2.11-7.42-1.07-2.13-2.54-3.87-4.39-5.22s-4.25-2.01-7.17-2.01c-4.87,0-8.9,2.01-12.12,6.07-3.23,4.05-4.96,9.7-5.24,16.94h31.69Z"/>
    <g>
      <path class="cls-1" d="m19.33,382.54H.02v-2.03c.55-.04,1.33-.1,2.36-.18,1.03-.07,1.75-.19,2.17-.34.66-.24,1.14-.58,1.45-1.01.3-.43.44-1.03.44-1.79v-29.45c0-.66-.1-1.22-.33-1.67-.22-.45-.74-.82-1.57-1.13-.61-.23-1.36-.44-2.28-.65-.92-.19-1.67-.31-2.26-.35v-2.03h19.31v2.03c-.63.02-1.37.09-2.24.22-.87.12-1.62.28-2.27.47-.76.23-1.28.6-1.53,1.11-.27.52-.39,1.1-.39,1.72v29.42c0,.62.14,1.18.43,1.67.29.49.79.88,1.49,1.16.42.16,1.11.32,2.07.5.95.19,1.76.28,2.43.3v2.03h.03Z"/>
      <path class="cls-1" d="m58.29,382.54h-14.58v-1.89c.46-.04.98-.08,1.53-.12.56-.04,1.01-.12,1.38-.23.56-.17.98-.47,1.25-.9.28-.43.41-.99.41-1.67v-14.53c0-2-.51-3.55-1.49-4.63-1-1.08-2.22-1.63-3.64-1.63-1.07,0-2.05.16-2.94.47-.88.31-1.67.7-2.35,1.16-.66.44-1.19.91-1.59,1.42-.39.51-.68.91-.85,1.21v16.25c0,.65.13,1.18.42,1.6.28.42.7.74,1.27.97.42.2.88.33,1.37.43.5.1,1,.17,1.53.21v1.89h-14.58v-1.89c.46-.04.94-.08,1.43-.12.5-.04.92-.12,1.29-.23.56-.17.98-.47,1.24-.9.28-.43.41-.99.41-1.67v-17.44c0-.65-.14-1.25-.44-1.79-.29-.55-.7-.99-1.21-1.34-.38-.23-.84-.39-1.36-.5-.53-.11-1.09-.18-1.69-.22v-1.86l9.9-.63.42.4v3.98h.14c.48-.45,1.09-1.01,1.82-1.64.72-.64,1.41-1.16,2.05-1.57.75-.46,1.64-.84,2.66-1.14,1.03-.3,2.19-.46,3.47-.46,2.85,0,4.98.85,6.36,2.53,1.38,1.69,2.06,3.94,2.06,6.75v14.69c0,.68.12,1.21.37,1.62.24.41.65.74,1.24.96.48.2.9.32,1.25.4s.85.14,1.46.18v1.89h0Z"/>
      <path class="cls-1" d="m96.05,382.02l-10.39.63-.45-.4v-2.64l-.24-.06c-1.05,1.12-2.34,2.02-3.89,2.73-1.54.71-3.12,1.06-4.75,1.06s-3.33-.36-4.91-1.08c-1.57-.71-2.96-1.72-4.12-3.02-1.18-1.32-2.13-2.9-2.82-4.75-.69-1.86-1.04-3.9-1.04-6.13,0-2.04.37-3.98,1.11-5.82.75-1.83,1.77-3.43,3.08-4.81,1.23-1.28,2.73-2.3,4.51-3.07,1.78-.76,3.6-1.14,5.45-1.14,1.39,0,2.75.17,4.09.5,1.34.34,2.49.76,3.45,1.28v-9.83c0-.8-.13-1.54-.42-2.19-.28-.67-.67-1.16-1.18-1.51-.57-.36-1.32-.62-2.28-.79-.96-.16-1.99-.27-3.09-.35v-1.78l12.16-.65.45.43v38.09c0,.67.13,1.24.41,1.71.26.46.67.86,1.19,1.18.38.24.93.37,1.66.43.72.06,1.38.1,1.99.12v1.86h.03Zm-10.9-4.96v-16.52c-.16-.5-.42-1.03-.78-1.6-.36-.58-.81-1.1-1.36-1.57-.58-.48-1.27-.88-2.05-1.19-.78-.31-1.7-.47-2.74-.47-1.22,0-2.33.29-3.34.89-1.02.58-1.92,1.44-2.7,2.54-.76,1.07-1.34,2.43-1.77,4.08s-.65,3.48-.65,5.49c0,1.6.17,3.06.48,4.37.32,1.31.86,2.52,1.63,3.64.71,1.08,1.61,1.94,2.71,2.58,1.09.65,2.39.98,3.91.98,1.61,0,2.95-.34,4-1.01,1.06-.66,1.95-1.41,2.67-2.21h-.01Z"/>
      <path class="cls-1" d="m132.36,382.02l-9.7.63-.45-.4v-3.59h-.17c-.48.48-1.03,1-1.64,1.54-.6.55-1.3,1.04-2.08,1.48-.91.52-1.78.91-2.63,1.17-.85.27-2.04.4-3.59.4-2.64,0-4.65-.81-6.03-2.44-1.37-1.63-2.06-4.01-2.06-7.12v-13.52c0-.68-.14-1.26-.41-1.73-.27-.47-.67-.88-1.19-1.22-.36-.22-.81-.39-1.35-.5-.55-.11-1.12-.18-1.72-.22v-1.87l9.93-.68.45.4v19.62c0,2.05.48,3.58,1.45,4.62.97,1.03,2.12,1.54,3.47,1.54,1.1,0,2.09-.17,2.96-.49.86-.32,1.59-.7,2.18-1.14.54-.4,1.02-.83,1.43-1.27.41-.45.73-.87.95-1.25v-16.01c0-.63-.13-1.18-.42-1.67-.28-.49-.67-.9-1.17-1.24-.36-.24-.9-.37-1.62-.42-.71-.05-1.52-.09-2.4-.13v-1.87l10.81-.68.45.4v22.43c0,.65.14,1.2.42,1.66.29.46.68.85,1.18,1.17.36.22.8.35,1.29.42.5.06,1.06.11,1.67.13v1.86h0Z"/>
      <path class="cls-1" d="m157.15,368.7c.82.68,1.46,1.47,1.91,2.37.44.9.66,2,.66,3.3,0,2.62-1.03,4.75-3.09,6.41s-4.74,2.49-8.02,2.49c-1.73,0-3.33-.29-4.78-.89-1.46-.59-2.5-1.13-3.13-1.63l-.6,1.87h-2.27l-.3-9.83h2.08c.16.74.51,1.61,1.03,2.6.52,1,1.16,1.9,1.9,2.7.78.84,1.73,1.54,2.82,2.12,1.1.57,2.33.86,3.7.86,1.94,0,3.42-.42,4.47-1.25,1.04-.83,1.57-2.02,1.57-3.57,0-.8-.16-1.48-.49-2.07-.34-.59-.83-1.09-1.46-1.54-.67-.44-1.49-.83-2.45-1.18-.97-.35-2.04-.7-3.23-1.04-.95-.28-2-.64-3.15-1.11-1.16-.47-2.15-1.01-2.98-1.65-.89-.66-1.61-1.48-2.17-2.45-.57-.98-.84-2.12-.84-3.44,0-2.31.91-4.27,2.72-5.88,1.81-1.6,4.23-2.4,7.28-2.4,1.16,0,2.36.15,3.57.43,1.22.29,2.21.64,2.98,1.04l.69-1.5h2.18l.45,9.08h-2.08c-.42-2.02-1.34-3.67-2.74-4.94-1.39-1.27-3.1-1.91-5.11-1.91-1.65,0-2.95.39-3.9,1.17s-1.42,1.73-1.42,2.84c0,.86.16,1.57.47,2.15.31.56.77,1.05,1.4,1.45.61.38,1.36.74,2.28,1.08.92.33,2.05.71,3.4,1.13,1.33.4,2.57.87,3.75,1.4,1.19.54,2.16,1.13,2.92,1.78h-.02Z"/>
      <path class="cls-1" d="m184.1,381.3c-1.31.52-2.55.95-3.71,1.3-1.18.35-2.6.54-4.29.54-2.49,0-4.26-.6-5.27-1.8-1.02-1.19-1.53-2.87-1.53-5.05v-19.13h-5.38v-2.75h5.49v-8.79h5.5v8.79h8.54v2.75h-8.49v15.79c0,1.18.05,2.17.14,2.96.08.79.3,1.48.65,2.07.32.56.8.98,1.44,1.26.65.29,1.51.43,2.6.43.51,0,1.25-.04,2.21-.13.98-.09,1.67-.19,2.07-.33v2.09h.03Z"/>
      <path class="cls-1" d="m211.35,357.93c0,.98-.26,1.84-.75,2.6-.51.75-1.28,1.12-2.33,1.12-1.12,0-1.99-.27-2.58-.83-.6-.55-.9-1.16-.9-1.83,0-.42.04-.8.1-1.14.07-.35.14-.69.19-1.04-.94,0-2.05.36-3.32,1.09s-2.34,1.76-3.23,3.1v16.44c0,.67.13,1.21.4,1.62.28.42.7.74,1.29.95.51.2,1.15.33,1.95.43.79.1,1.48.17,2.06.21v1.89h-15.7v-1.89c.46-.04.94-.08,1.43-.12.49-.04.92-.12,1.29-.23.56-.17.98-.47,1.25-.9.28-.43.41-.99.41-1.67v-17.44c0-.6-.15-1.17-.44-1.75-.29-.58-.7-1.03-1.22-1.38-.38-.23-.83-.39-1.36-.5-.52-.11-1.09-.18-1.69-.22v-1.86l9.91-.63.42.4v3.98h.14c1.25-1.55,2.64-2.72,4.17-3.52s2.93-1.2,4.2-1.2,2.3.39,3.09,1.17,1.19,1.84,1.19,3.15h.03Z"/>
      <path class="cls-1" d="m229.84,382.54h-14.4v-1.89c.46-.04.94-.08,1.43-.12.5-.04.92-.12,1.28-.23.57-.17.99-.47,1.26-.9.27-.43.41-.99.41-1.67v-17.44c0-.61-.15-1.17-.44-1.68-.29-.51-.7-.93-1.23-1.27-.38-.23-.93-.43-1.66-.59-.72-.16-1.38-.26-1.99-.3v-1.86l10.51-.63.42.4v23.03c0,.67.14,1.22.4,1.66.27.43.7.76,1.29.97.44.18.88.31,1.3.42.42.1.89.18,1.41.22v1.89h.01Zm-3.8-39.73c0,1.08-.37,2.03-1.14,2.84-.75.81-1.68,1.22-2.79,1.22-1.02,0-1.91-.39-2.67-1.16-.75-.77-1.13-1.66-1.13-2.65,0-1.05.38-1.96,1.13-2.75.76-.78,1.65-1.17,2.67-1.17,1.16,0,2.09.36,2.82,1.1.73.74,1.11,1.59,1.11,2.57h0Z"/>
      <path class="cls-1" d="m261.44,375.89c-1.25,2.26-2.91,4.05-5.01,5.39-2.09,1.34-4.51,2.01-7.21,2.01-2.4,0-4.5-.4-6.3-1.2-1.8-.8-3.29-1.89-4.45-3.27-1.16-1.37-2.04-2.98-2.62-4.81-.57-1.84-.85-3.77-.85-5.81,0-1.83.31-3.63.92-5.4.62-1.77,1.51-3.35,2.71-4.77,1.14-1.35,2.57-2.45,4.27-3.28s3.61-1.25,5.72-1.25,4.04.32,5.59.98c1.55.65,2.81,1.53,3.77,2.66.93,1.07,1.62,2.34,2.07,3.78.45,1.46.68,3.03.68,4.72v1.9h-19.72c0,1.85.18,3.53.56,5.03.37,1.52.96,2.83,1.77,3.99.78,1.11,1.8,1.98,3.07,2.62,1.27.64,2.78.96,4.54.96s3.34-.4,4.64-1.19c1.29-.79,2.55-2.22,3.75-4.28l2.11,1.23h0Zm-6.67-10.77c0-1.07-.09-2.22-.29-3.44s-.5-2.24-.92-3.06c-.46-.88-1.1-1.59-1.91-2.15-.8-.56-1.85-.83-3.11-.83-2.11,0-3.87.83-5.26,2.5-1.4,1.67-2.16,4-2.28,6.98h13.77,0Z"/>
      <path class="cls-1" d="m286.03,368.7c.82.68,1.46,1.47,1.91,2.37.44.9.66,2,.66,3.3,0,2.62-1.03,4.75-3.09,6.41s-4.74,2.49-8.02,2.49c-1.73,0-3.33-.29-4.78-.89-1.46-.59-2.5-1.13-3.13-1.63l-.6,1.87h-2.27l-.3-9.83h2.08c.16.74.51,1.61,1.03,2.6.52,1,1.15,1.9,1.9,2.7.78.84,1.73,1.54,2.82,2.12,1.1.57,2.33.86,3.7.86,1.94,0,3.42-.42,4.47-1.25,1.04-.83,1.57-2.02,1.57-3.57,0-.8-.17-1.48-.5-2.07-.34-.59-.82-1.09-1.46-1.54-.67-.44-1.49-.83-2.45-1.18-.97-.35-2.04-.7-3.22-1.04-.95-.28-2-.64-3.16-1.11-1.17-.47-2.15-1.01-2.98-1.65-.89-.66-1.61-1.48-2.17-2.45-.57-.98-.85-2.12-.85-3.44,0-2.31.91-4.27,2.72-5.88,1.81-1.6,4.23-2.4,7.28-2.4,1.16,0,2.36.15,3.58.43,1.22.29,2.21.64,2.98,1.04l.69-1.5h2.17l.45,9.08h-2.08c-.42-2.02-1.34-3.67-2.74-4.94-1.39-1.27-3.1-1.91-5.11-1.91-1.65,0-2.95.39-3.9,1.17-.95.78-1.42,1.73-1.42,2.84,0,.86.15,1.57.47,2.15.31.56.77,1.05,1.4,1.45.61.38,1.36.74,2.28,1.08.92.33,2.05.71,3.4,1.13,1.33.4,2.58.87,3.75,1.4,1.18.54,2.15,1.13,2.91,1.78h0Z"/>
      <path class="cls-1" d="m343.2,370.45l-.91,12.08h-33.49v-2.03c.48-.04,1.18-.11,2.1-.2.92-.09,1.56-.22,1.92-.37.6-.25,1.04-.61,1.31-1.09.28-.48.41-1.08.41-1.83v-29.1c0-.65-.11-1.22-.35-1.72-.22-.5-.69-.9-1.37-1.2-.46-.23-1.11-.45-1.95-.68-.84-.21-1.52-.34-2.07-.38v-2.03h18.09v2.03c-.57.02-1.29.11-2.18.29-.9.17-1.55.32-1.95.46-.69.23-1.15.62-1.41,1.18-.25.55-.37,1.14-.37,1.78v27.29c0,1.26.06,2.24.2,2.93.13.7.43,1.23.92,1.62.46.34,1.15.57,2.07.66.92.11,2.2.16,3.85.16.75,0,1.52,0,2.33-.05.8-.04,1.56-.12,2.3-.24.7-.12,1.35-.27,1.95-.47.59-.2,1.03-.46,1.31-.76.82-.88,1.78-2.21,2.89-3.99,1.09-1.79,1.86-3.24,2.28-4.34h2.14-.02Z"/>
      <path class="cls-1" d="m361.3,382.54h-14.4v-1.89c.46-.04.94-.08,1.43-.12.5-.04.92-.12,1.28-.23.57-.17.99-.47,1.26-.9.27-.43.41-.99.41-1.67v-17.44c0-.61-.15-1.17-.44-1.68-.29-.51-.7-.93-1.22-1.27-.38-.23-.93-.43-1.66-.59-.72-.16-1.38-.26-1.99-.3v-1.86l10.51-.63.42.4v23.03c0,.67.13,1.22.4,1.66.27.43.7.76,1.29.97.44.18.88.31,1.3.42.42.1.89.18,1.41.22v1.89h0Zm-3.8-39.73c0,1.08-.37,2.03-1.14,2.84-.75.81-1.68,1.22-2.79,1.22-1.02,0-1.92-.39-2.67-1.16s-1.13-1.66-1.13-2.65c0-1.05.38-1.96,1.13-2.75.75-.78,1.65-1.17,2.67-1.17,1.15,0,2.09.36,2.82,1.1.73.74,1.1,1.59,1.1,2.57h.01Z"/>
      <path class="cls-1" d="m417.45,382.54h-14.52v-1.89c.46-.04.93-.08,1.4-.12s.9-.12,1.26-.23c.57-.17.98-.47,1.25-.9.28-.43.41-.99.41-1.67v-14.58c0-2-.47-3.52-1.43-4.61-.96-1.07-2.16-1.61-3.58-1.61-.99,0-1.92.15-2.78.43s-1.66.69-2.38,1.2c-.59.42-1.07.87-1.46,1.36-.4.49-.69.89-.9,1.22v16.3c0,.67.12,1.21.36,1.64.25.43.66.76,1.24.99.46.18.89.3,1.26.39.37.08.86.15,1.47.19v1.89h-14.22v-1.89c.46-.04.92-.08,1.35-.12s.82-.12,1.19-.23c.57-.17.98-.47,1.26-.9.27-.43.4-.99.4-1.67v-14.58c0-2-.47-3.52-1.44-4.61-.96-1.07-2.14-1.61-3.57-1.61-.99,0-1.91.15-2.77.44-.86.3-1.67.7-2.39,1.22-.58.42-1.07.89-1.47,1.42s-.71.92-.91,1.18v16.19c0,.65.13,1.19.42,1.63.28.44.7.77,1.27,1,.42.2.85.33,1.3.43.44.1.94.17,1.48.21v1.89h-14.46v-1.89c.46-.04.94-.08,1.43-.12s.92-.12,1.29-.23c.55-.17.98-.47,1.25-.9.28-.43.41-.99.41-1.67v-17.56c0-.61-.15-1.16-.44-1.65-.29-.48-.7-.9-1.22-1.24-.38-.22-.86-.41-1.42-.56-.57-.15-1.15-.24-1.75-.28v-1.86l9.97-.63.42.4v4.04h.2c.51-.48,1.12-1.04,1.85-1.69.72-.65,1.4-1.17,2.02-1.58.71-.46,1.59-.84,2.65-1.14,1.05-.3,2.19-.46,3.42-.46,1.94,0,3.59.5,4.99,1.48,1.38.98,2.38,2.17,2.99,3.57.72-.67,1.36-1.26,1.92-1.76.54-.51,1.28-1.04,2.18-1.62.76-.5,1.67-.9,2.7-1.2,1.04-.3,2.19-.46,3.46-.46,2.52,0,4.5.78,5.98,2.35,1.46,1.57,2.21,3.98,2.21,7.22v14.35c0,.67.11,1.21.36,1.64.24.43.65.76,1.24.99.46.18.92.3,1.37.39.45.08.97.15,1.52.19v1.89h-.04Z"/>
      <path class="cls-1" d="m436.87,382.54h-14.4v-1.89c.46-.04.94-.08,1.43-.12.5-.04.92-.12,1.28-.23.57-.17.99-.47,1.26-.9.27-.43.41-.99.41-1.67v-17.44c0-.61-.15-1.17-.44-1.68-.29-.51-.7-.93-1.23-1.27-.38-.23-.93-.43-1.66-.59-.72-.16-1.38-.26-1.99-.3v-1.86l10.51-.63.42.4v23.03c0,.67.13,1.22.4,1.66.27.43.7.76,1.29.97.44.18.88.31,1.3.42.42.1.89.18,1.41.22v1.89h0Zm-3.8-39.73c0,1.08-.37,2.03-1.14,2.84-.75.81-1.68,1.22-2.79,1.22-1.02,0-1.92-.39-2.67-1.16s-1.13-1.66-1.13-2.65c0-1.05.38-1.96,1.13-2.75.75-.78,1.65-1.17,2.67-1.17,1.16,0,2.09.36,2.82,1.1.73.74,1.1,1.59,1.1,2.57h.01Z"/>
      <path class="cls-1" d="m460.41,381.3c-1.31.52-2.54.95-3.71,1.3-1.18.35-2.6.54-4.29.54-2.5,0-4.26-.6-5.27-1.8-1.02-1.19-1.53-2.87-1.53-5.05v-19.13h-5.38v-2.75h5.49v-8.79h5.5v8.79h8.55v2.75h-8.49v15.79c0,1.18.05,2.17.14,2.96.08.79.3,1.48.65,2.07.32.56.8.98,1.44,1.26.65.29,1.52.43,2.6.43.5,0,1.24-.04,2.21-.13.98-.09,1.67-.19,2.07-.33v2.09h.02Z"/>
      <path class="cls-1" d="m491.31,375.89c-1.25,2.26-2.92,4.05-5.01,5.39-2.09,1.34-4.5,2.01-7.21,2.01-2.4,0-4.49-.4-6.3-1.2-1.8-.8-3.29-1.89-4.45-3.27-1.17-1.37-2.04-2.98-2.62-4.81-.56-1.84-.85-3.77-.85-5.81,0-1.83.31-3.63.92-5.4.62-1.77,1.52-3.35,2.71-4.77,1.15-1.35,2.57-2.45,4.27-3.28,1.7-.83,3.61-1.25,5.72-1.25s4.04.32,5.59.98c1.56.65,2.81,1.53,3.77,2.66.93,1.07,1.62,2.34,2.07,3.78.45,1.46.68,3.03.68,4.72v1.9h-19.72c0,1.85.19,3.53.56,5.03.37,1.52.96,2.83,1.77,3.99.78,1.11,1.8,1.98,3.07,2.62,1.27.64,2.78.96,4.54.96s3.34-.4,4.64-1.19c1.29-.79,2.54-2.22,3.75-4.28l2.11,1.23h0Zm-6.67-10.77c0-1.07-.09-2.22-.29-3.44-.19-1.22-.5-2.24-.92-3.06-.46-.88-1.1-1.59-1.9-2.15-.81-.56-1.84-.83-3.11-.83-2.12,0-3.87.83-5.27,2.5s-2.15,4-2.28,6.98h13.77Z"/>
      <path class="cls-1" d="m528.85,382.02l-10.39.63-.45-.4v-2.64l-.24-.06c-1.05,1.12-2.34,2.02-3.89,2.73-1.54.71-3.12,1.06-4.75,1.06s-3.33-.36-4.91-1.08c-1.58-.71-2.96-1.72-4.12-3.02-1.19-1.32-2.14-2.9-2.83-4.75-.69-1.86-1.04-3.9-1.04-6.13,0-2.04.37-3.98,1.11-5.82.75-1.83,1.77-3.43,3.08-4.81,1.22-1.28,2.73-2.3,4.51-3.07,1.78-.76,3.6-1.14,5.45-1.14,1.39,0,2.75.17,4.09.5,1.34.34,2.49.76,3.45,1.28v-9.83c0-.8-.13-1.54-.42-2.19-.28-.67-.67-1.16-1.17-1.51-.57-.36-1.32-.62-2.28-.79-.96-.16-1.99-.27-3.09-.35v-1.78l12.16-.65.45.43v38.09c0,.67.13,1.24.41,1.71.26.46.67.86,1.19,1.18.38.24.93.37,1.66.43.72.06,1.38.1,1.99.12v1.86h.03Zm-10.91-4.96v-16.52c-.15-.5-.42-1.03-.78-1.6-.36-.58-.81-1.1-1.36-1.57-.58-.48-1.27-.88-2.05-1.19-.78-.31-1.7-.47-2.74-.47-1.22,0-2.33.29-3.34.89-1.02.58-1.92,1.44-2.7,2.54-.75,1.07-1.34,2.43-1.77,4.08s-.65,3.48-.65,5.49c0,1.6.17,3.06.49,4.37.32,1.31.86,2.52,1.63,3.64.71,1.08,1.61,1.94,2.71,2.58,1.09.65,2.39.98,3.91.98,1.61,0,2.95-.34,4-1.01,1.06-.66,1.95-1.41,2.67-2.21h-.02Z"/>
    </g>
  </g>
</svg>